<svg width="150" height="141" viewBox="0 0 150 141" fill="none" xmlns="http://www.w3.org/2000/svg">
<path fill-rule="evenodd" clip-rule="evenodd" d="M119.773 4.41581C119.213 4.36995 118.633 4.48794 118.11 4.7899L74.6709 29.838L31.232 4.7899C30.7554 4.51512 30.2327 4.39269 29.7203 4.40743C29.2079 4.39269 28.6852 4.51512 28.2087 4.7899L5.88896 17.6601C5.01613 18.1634 4.50896 19.0563 4.46051 19.9919C4.42849 20.1631 4.41176 20.3397 4.41176 20.5201V122.052C4.41176 122.199 4.42301 122.345 4.44468 122.487C4.3782 123.537 4.89688 124.585 5.87131 125.146L28.191 138.017C28.7372 138.332 29.3442 138.446 29.9267 138.384C30.5092 138.446 31.1161 138.332 31.6624 138.017L53.9819 125.146C54.454 124.874 54.8188 124.488 55.0624 124.043C55.3562 123.594 55.5274 123.057 55.5274 122.481V73.6121L73.7241 84.1047C74.2478 84.4066 74.8271 84.5246 75.3873 84.4788C75.9472 84.5246 76.5265 84.4066 77.0501 84.1047L94.6151 73.9761V122.481C94.6151 122.754 94.6535 123.018 94.725 123.268C94.8887 124.031 95.3634 124.725 96.0935 125.146L118.413 138.017C118.949 138.325 119.542 138.442 120.115 138.387C120.686 138.442 121.28 138.325 121.816 138.017L144.136 125.146C145.12 124.579 145.639 123.516 145.56 122.455C145.579 122.323 145.588 122.188 145.588 122.051V20.5201C145.588 19.6101 145.162 18.7993 144.499 18.2755C144.294 18.0361 144.045 17.8267 143.756 17.6601L121.436 4.7899C120.913 4.48794 120.334 4.36995 119.773 4.41581ZM139.861 121.006V23.465L75.6181 60.5093C75.1438 60.7829 74.6241 60.9054 74.1141 60.8922C73.6041 60.9054 73.0844 60.7829 72.6101 60.5093L10.139 24.4866V121.002L27.3205 130.91V56.2705C27.3205 55.4637 27.6551 54.7349 28.1934 54.2149C29.0418 53.0367 30.663 52.6697 31.9482 53.4108L75.3869 78.4586L118.826 53.4108C120.195 52.6208 121.947 53.0896 122.737 54.4577C122.868 54.6824 122.964 54.9177 123.027 55.1574C123.172 55.4998 123.252 55.8757 123.252 56.2705V130.583L139.861 121.006ZM117.525 130.9L100.343 120.991V70.9997C100.343 70.893 100.337 70.7877 100.325 70.6837L117.525 60.7657V130.9ZM49.8 120.953V70.9997C49.8 70.7771 49.8256 70.5604 49.8737 70.3519L33.0478 60.6498V130.613L49.8 120.953ZM135.388 19.4395L74.1141 54.7714L13.5491 19.848L29.7203 10.5232L73.0076 35.484C73.5313 35.7858 74.1106 35.9039 74.6709 35.8581C75.2312 35.9039 75.8104 35.7858 76.3337 35.484L119.773 10.4358L135.388 19.4395Z" fill="#004E39"/>
<path d="M119.773 4.41581L119.683 5.51372L119.773 5.52108L119.863 5.51372L119.773 4.41581ZM74.6709 29.838L74.1194 30.792L74.6709 31.11L75.2224 30.792L74.6709 29.838ZM29.7203 4.40744L29.6885 5.50856L29.7203 5.50944L29.7521 5.50856L29.7203 4.40744ZM4.46051 19.992L5.54471 20.1941L5.55816 20.122L5.56196 20.0488L4.46051 19.992ZM4.44468 122.487L5.54546 122.556L5.55296 122.438L5.535 122.321L4.44468 122.487ZM29.9267 138.384L30.0446 137.289L29.9267 137.276L29.8088 137.289L29.9267 138.384ZM55.0624 124.043L54.139 123.441L54.1151 123.477L54.0944 123.515L55.0624 124.043ZM55.5274 73.6121L56.0788 72.6582L54.4244 71.7038V73.6121H55.5274ZM75.3873 84.4788L75.4774 83.3808L75.3869 83.3737L75.2969 83.3808L75.3873 84.4788ZM94.6151 73.9761H95.7181V72.0682L94.0637 73.0221L94.6151 73.9761ZM94.725 123.268L95.8037 123.037L95.7957 123.001L95.7856 122.965L94.725 123.268ZM120.115 138.387L120.219 137.291L120.115 137.281L120.01 137.291L120.115 138.387ZM145.56 122.455L144.468 122.301L144.451 122.418L144.46 122.536L145.56 122.455ZM144.499 18.2755L143.662 18.9923L143.731 19.0733L143.815 19.1396L144.499 18.2755ZM139.861 121.006L140.412 121.96L140.964 121.642V121.006H139.861ZM139.861 23.465H140.964V21.557L139.309 22.511L139.861 23.465ZM74.1141 60.8922L74.1428 59.7893L74.0854 59.7906L74.1141 60.8922ZM10.139 24.4866L10.6905 23.5326L9.03604 22.5787V24.4866H10.139ZM10.139 121.002H9.03604V121.638L9.58752 121.956L10.139 121.002ZM27.3205 130.91L26.769 131.864L28.4235 132.818V130.91H27.3205ZM28.1934 54.2149L28.9602 55.0063L29.0312 54.938L29.0888 54.8578L28.1934 54.2149ZM75.3869 78.4586L74.8354 79.4125L75.3869 79.7307L75.9384 79.4125L75.3869 78.4586ZM123.027 55.1574L121.961 55.4394L121.981 55.5148L122.011 55.5866L123.027 55.1574ZM123.252 130.583H122.149V132.491L123.804 131.537L123.252 130.583ZM100.343 120.991H99.2396V121.627L99.791 121.945L100.343 120.991ZM117.525 130.9L116.974 131.854L118.628 132.807V130.9H117.525ZM100.325 70.6837L99.7738 69.7298L99.15 70.0893L99.229 70.804L100.325 70.6837ZM117.525 60.7657H118.628V58.8578L116.974 59.8118L117.525 60.7657ZM49.8 120.953L50.3515 121.907L50.9029 121.589V120.953H49.8ZM49.8737 70.352L50.9484 70.6005L51.1324 69.806L50.4251 69.398L49.8737 70.352ZM33.0478 60.6498L33.5992 59.6959L31.9448 58.7419V60.6498H33.0478ZM33.0478 130.613H31.9448V132.521L33.5992 131.567L33.0478 130.613ZM74.1141 54.7714L73.5626 55.7254L74.1141 56.0435L74.6656 55.7254L74.1141 54.7714ZM135.388 19.4395L135.939 20.3935L137.594 19.4395L135.939 18.4855L135.388 19.4395ZM13.5491 19.848L12.9976 18.894L11.3432 19.848L12.9976 20.802L13.5491 19.848ZM29.7203 10.5232L30.2718 9.56923L29.7203 9.25123L29.1689 9.56923L29.7203 10.5232ZM74.6709 35.8581L74.7609 34.7602L74.6709 34.7528L74.5809 34.7602L74.6709 35.8581ZM119.773 10.4358L120.325 9.48177L119.773 9.16377L119.222 9.48177L119.773 10.4358ZM118.661 5.7439C118.984 5.55747 119.339 5.48556 119.683 5.51372L119.863 3.31796C119.087 3.25433 118.282 3.41842 117.558 3.83592L118.661 5.7439ZM75.2224 30.792L118.661 5.7439L117.558 3.83592L74.1194 28.884L75.2224 30.792ZM30.6805 5.7439L74.1194 30.792L75.2224 28.884L31.7835 3.83592L30.6805 5.7439ZM29.7521 5.50856C30.0661 5.49949 30.386 5.57408 30.6805 5.7439L31.7835 3.83592C31.1249 3.45618 30.3994 3.28588 29.6885 3.30633L29.7521 5.50856ZM28.7602 5.7439C29.0546 5.57408 29.3746 5.49949 29.6885 5.50856L29.7521 3.30633C29.0413 3.28588 28.3158 3.45618 27.6572 3.83592L28.7602 5.7439ZM6.44043 18.6141L28.7602 5.7439L27.6572 3.83592L5.33749 16.7061L6.44043 18.6141ZM5.56196 20.0488C5.59191 19.4702 5.90475 18.923 6.44043 18.6141L5.33749 16.7061C4.12748 17.4039 3.42595 18.6424 3.35903 19.9351L5.56196 20.0488ZM5.51471 20.5201C5.51471 20.4078 5.52512 20.2989 5.54471 20.1941L3.37629 19.7897C3.33189 20.0273 3.30882 20.2715 3.30882 20.5201H5.51471ZM5.51471 122.052V20.5201H3.30882V122.052H5.51471ZM5.535 122.321C5.52172 122.233 5.51471 122.144 5.51471 122.052H3.30882C3.30882 122.255 3.32432 122.456 3.35438 122.653L5.535 122.321ZM6.42278 124.192C5.82507 123.848 5.50438 123.205 5.54546 122.556L3.34395 122.417C3.25203 123.869 3.96873 125.321 5.31984 126.1L6.42278 124.192ZM28.7425 137.063L6.42278 124.192L5.31984 126.1L27.6395 138.97L28.7425 137.063ZM29.8088 137.289C29.4509 137.327 29.0795 137.257 28.7425 137.063L27.6395 138.97C28.395 139.406 29.2375 139.566 30.0446 139.479L29.8088 137.289ZM31.1109 137.063C30.7739 137.257 30.4025 137.327 30.0446 137.289L29.8088 139.479C30.6159 139.566 31.4584 139.406 32.2138 138.97L31.1109 137.063ZM53.4304 124.192L31.1109 137.063L32.2138 138.97L54.5334 126.1L53.4304 124.192ZM54.0944 123.515C53.9453 123.788 53.7221 124.024 53.4304 124.192L54.5334 126.1C55.1854 125.724 55.6924 125.189 56.0303 124.571L54.0944 123.515ZM54.4244 122.481C54.4244 122.837 54.3194 123.165 54.139 123.441L55.9857 124.646C56.3934 124.023 56.6303 123.278 56.6303 122.481H54.4244ZM54.4244 73.6121V122.481H56.6303V73.6121H54.4244ZM74.2756 83.1508L56.0788 72.6582L54.9759 74.5661L73.1726 85.0587L74.2756 83.1508ZM75.2969 83.3808C74.9532 83.409 74.5985 83.3372 74.2756 83.1508L73.1726 85.0587C73.8966 85.4764 74.7009 85.6403 75.4774 85.5769L75.2969 83.3808ZM76.4987 83.1508C76.1753 83.3372 75.821 83.409 75.4774 83.3808L75.2974 85.5769C76.0734 85.6403 76.8776 85.476 77.6016 85.0587L76.4987 83.1508ZM94.0637 73.0221L76.4987 83.1508L77.6016 85.0587L95.1666 74.93L94.0637 73.0221ZM95.7181 122.481V73.9761H93.5122V122.481H95.7181ZM95.7856 122.965C95.7419 122.813 95.7181 122.65 95.7181 122.481H93.5122C93.5122 122.857 93.5651 123.223 93.6644 123.571L95.7856 122.965ZM96.645 124.192C96.1959 123.933 95.9047 123.509 95.8037 123.037L93.6468 123.499C93.8731 124.554 94.5304 125.517 95.5421 126.1L96.645 124.192ZM118.965 137.063L96.645 124.192L95.5421 126.1L117.862 138.97L118.965 137.063ZM120.01 137.291C119.659 137.324 119.295 137.253 118.965 137.063L117.862 138.97C118.602 139.397 119.426 139.559 120.219 139.484L120.01 137.291ZM121.264 137.063C120.934 137.253 120.57 137.324 120.219 137.291L120.01 139.484C120.802 139.559 121.627 139.397 122.367 138.97L121.264 137.063ZM143.584 124.192L121.264 137.063L122.367 138.97L144.687 126.1L143.584 124.192ZM144.46 122.536C144.509 123.192 144.188 123.844 143.584 124.192L144.687 126.1C146.052 125.313 146.77 123.839 146.66 122.373L144.46 122.536ZM144.485 122.051C144.485 122.137 144.48 122.22 144.468 122.301L146.652 122.608C146.678 122.426 146.691 122.24 146.691 122.051H144.485ZM144.485 20.5201V122.051H146.691V20.5201H144.485ZM143.815 19.1396C144.225 19.4634 144.485 19.9612 144.485 20.5201H146.691C146.691 19.2591 146.1 18.1352 145.184 17.4115L143.815 19.1396ZM143.205 18.6141C143.384 18.7175 143.537 18.8462 143.662 18.9923L145.337 17.5588C145.051 17.2259 144.706 16.936 144.308 16.7061L143.205 18.6141ZM120.885 5.7439L143.205 18.6141L144.308 16.7061L121.988 3.83592L120.885 5.7439ZM119.863 5.51372C120.207 5.48556 120.562 5.55747 120.885 5.7439L121.988 3.83592C121.264 3.41842 120.46 3.25438 119.683 3.31796L119.863 5.51372ZM140.964 121.006V23.465H138.758V121.006H140.964ZM139.309 22.511L75.0666 59.5553L76.1696 61.4632L140.412 24.419L139.309 22.511ZM75.0666 59.5553C74.7737 59.7241 74.4551 59.7977 74.1428 59.7893L74.0854 61.9933C74.7926 62.0118 75.5144 61.8413 76.1696 61.4632L75.0666 59.5553ZM74.0854 59.7906C73.7731 59.799 73.4546 59.7241 73.1616 59.5553L72.0587 61.4632C72.7138 61.8413 73.4356 62.0118 74.1428 61.9933L74.0854 59.7906ZM73.1616 59.5553L10.6905 23.5326L9.58752 25.4406L72.0587 61.4632L73.1616 59.5553ZM9.03604 24.4866V121.002H11.2419V24.4866H9.03604ZM9.58752 121.956L26.769 131.864L27.872 129.956L10.6905 120.048L9.58752 121.956ZM28.4235 130.91V56.2705H26.2176V130.91H28.4235ZM28.4235 56.2705C28.4235 55.7743 28.6279 55.3275 28.9602 55.0063L27.4265 53.4231C26.6824 54.1418 26.2176 55.153 26.2176 56.2705H28.4235ZM29.0888 54.8578C29.6097 54.1343 30.6071 53.9091 31.3967 54.3648L32.4997 52.4568C30.7189 51.4297 28.4738 51.9387 27.2979 53.5716L29.0888 54.8578ZM31.3967 54.3648L74.8354 79.4125L75.9384 77.5046L32.4997 52.4568L31.3967 54.3648ZM75.9384 79.4125L119.378 54.3648L118.275 52.4568L74.8354 77.5046L75.9384 79.4125ZM119.378 54.3648C120.22 53.8792 121.296 54.1674 121.782 55.0085L123.693 53.9069C122.598 52.0118 120.172 51.3628 118.275 52.4568L119.378 54.3648ZM121.782 55.0085C121.864 55.1482 121.922 55.2927 121.961 55.4394L124.094 54.8759C124.005 54.5428 123.872 54.2171 123.693 53.9069L121.782 55.0085ZM122.011 55.5866C122.1 55.7955 122.149 56.0259 122.149 56.2705H124.355C124.355 55.7258 124.245 55.2037 124.043 54.7283L122.011 55.5866ZM122.149 56.2705V130.583H124.355V56.2705H122.149ZM123.804 131.537L140.412 121.96L139.309 120.052L122.701 129.629L123.804 131.537ZM99.791 121.945L116.974 131.854L118.076 129.945L100.894 120.037L99.791 121.945ZM99.2396 70.9997V120.991H101.445V70.9997H99.2396ZM99.229 70.804C99.236 70.8679 99.2396 70.9336 99.2396 70.9997H101.445C101.445 70.8525 101.437 70.7071 101.422 70.5635L99.229 70.804ZM116.974 59.8118L99.7738 69.7298L100.877 71.6377L118.076 61.7197L116.974 59.8118ZM118.628 130.9V60.7657H116.422V130.9H118.628ZM48.6971 70.9997V120.953H50.9029V70.9997H48.6971ZM48.7994 70.1034C48.7324 70.3925 48.6971 70.693 48.6971 70.9997H50.9029C50.9029 70.8613 50.9188 70.7278 50.9484 70.6005L48.7994 70.1034ZM32.4963 61.6038L49.3222 71.3059L50.4251 69.398L33.5992 59.6959L32.4963 61.6038ZM34.1507 130.613V60.6498H31.9448V130.613H34.1507ZM49.2485 119.999L32.4963 129.659L33.5992 131.567L50.3515 121.907L49.2485 119.999ZM74.6656 55.7254L135.939 20.3935L134.836 18.4855L73.5626 53.8175L74.6656 55.7254ZM12.9976 20.802L73.5626 55.7254L74.6656 53.8175L14.1006 18.894L12.9976 20.802ZM29.1689 9.56923L12.9976 18.894L14.1006 20.802L30.2718 11.4772L29.1689 9.56923ZM73.5591 34.53L30.2718 9.56923L29.1689 11.4772L72.4562 36.4379L73.5591 34.53ZM74.5809 34.7602C74.2372 34.7884 73.8825 34.7164 73.5591 34.53L72.4562 36.4379C73.1801 36.8556 73.9844 37.0196 74.7609 36.9561L74.5809 34.7602ZM75.7822 34.53C75.4593 34.7164 75.1046 34.7884 74.7609 34.7602L74.5809 36.9561C75.3574 37.0196 76.1616 36.8556 76.8851 36.4379L75.7822 34.53ZM119.222 9.48177L75.7822 34.53L76.8851 36.4379L120.325 11.3897L119.222 9.48177ZM135.939 18.4855L120.325 9.48177L119.222 11.3897L134.836 20.3935L135.939 18.4855Z" fill="#004E39"/>
</svg>
