<svg width="140" height="32" viewBox="0 0 140 32" fill="none" xmlns="http://www.w3.org/2000/svg">
  <g transform="translate(0, 2) scale(0.1986)">
    <path fill-rule="evenodd" clip-rule="evenodd" d="M119.773 4.41581C119.213 4.36995 118.633 4.48794 118.11 4.7899L74.6709 29.838L31.232 4.7899C30.7554 4.51512 30.2327 4.39269 29.7203 4.40743C29.2079 4.39269 28.6852 4.51512 28.2087 4.7899L5.88896 17.6601C5.01613 18.1634 4.50896 19.0563 4.46051 19.9919C4.42849 20.1631 4.41176 20.3397 4.41176 20.5201V122.052C4.41176 122.199 4.42301 122.345 4.44468 122.487C4.3782 123.537 4.89688 124.585 5.87131 125.146L28.191 138.017C28.7372 138.332 29.3442 138.446 29.9267 138.384C30.5092 138.446 31.1161 138.332 31.6624 138.017L53.9819 125.146C54.454 124.874 54.8188 124.488 55.0624 124.043C55.3562 123.594 55.5274 123.057 55.5274 122.481V73.6121L73.7241 84.1047C74.2478 84.4066 74.8271 84.5246 75.3873 84.4788C75.9472 84.5246 76.5265 84.4066 77.0501 84.1047L94.6151 73.9761V122.481C94.6151 122.754 94.6535 123.018 94.725 123.268C94.8887 124.031 95.3634 124.725 96.0935 125.146L118.413 138.017C118.949 138.325 119.542 138.442 120.115 138.387C120.686 138.442 121.28 138.325 121.816 138.017L144.136 125.146C145.12 124.579 145.639 123.516 145.56 122.455C145.579 122.323 145.588 122.188 145.588 122.051V20.5201C145.588 19.6101 145.162 18.7993 144.499 18.2755C144.294 18.0361 144.045 17.8267 143.756 17.6601L121.436 4.7899C120.913 4.48794 120.334 4.36995 119.773 4.41581ZM139.861 121.006V23.465L75.6181 60.5093C75.1438 60.7829 74.6241 60.9054 74.1141 60.8922C73.6041 60.9054 73.0844 60.7829 72.6101 60.5093L10.139 24.4866V121.002L27.3205 130.91V56.2705C27.3205 55.4637 27.6551 54.7349 28.1934 54.2149C29.0418 53.0367 30.663 52.6697 31.9482 53.4108L75.3869 78.4586L118.826 53.4108C120.195 52.6208 121.947 53.0896 122.737 54.4577C122.868 54.6824 122.964 54.9177 123.027 55.1574C123.172 55.4998 123.252 55.8757 123.252 56.2705V130.583L139.861 121.006ZM117.525 130.9L100.343 120.991V70.9997C100.343 70.893 100.337 70.7877 100.325 70.6837L117.525 60.7657V130.9ZM49.8 120.953V70.9997C49.8 70.7771 49.8256 70.5604 49.8737 70.3519L33.0478 60.6498V130.613L49.8 120.953ZM135.388 19.4395L74.1141 54.7714L13.5491 19.848L29.7203 10.5232L73.0076 35.484C73.5313 35.7858 74.1106 35.9039 74.6709 35.8581C75.2312 35.9039 75.8104 35.7858 76.3337 35.484L119.773 10.4358L135.388 19.4395Z" fill="#004E39"/>
  </g>
  <text x="38" y="22" font-family="system-ui, -apple-system, sans-serif" font-size="16" font-weight="600" fill="#004E39">Matproof</text>
</svg>
